<svg
   xmlnsDc="http://purl.org/dc/elements/1.1/"
   xmlnsCc="http://creativecommons.org/ns#"
   xmlnsRdf="http://www.w3.org/1999/02/22-rdf-syntax-ns#"
   xmlnsSvg="http://www.w3.org/2000/svg"
   xmlns="http://www.w3.org/2000/svg"
   id="svg4412"
   version="1.1"
   viewBox="0 0 35.630305 35.630307"
   height="35.630306mm"
   width="35.630306mm">
  <defs
     id="defs4406">
    <clipPath
       id="clipPath1556"
       clipPathUnits="userSpaceOnUse">
      <path
         id="path1554"
         d="m 242.762,448.246 h 35.55 v -71.091 h -35.55 z" />
    </clipPath>
    <clipPath
       id="clipPath1708"
       clipPathUnits="userSpaceOnUse">
      <path
         id="path1706"
         d="M 365.557,372.594 H 455.07 V 359.197 H 365.557 Z" />
    </clipPath>
    <clipPath
       id="clipPath1300"
       clipPathUnits="userSpaceOnUse">
      <path
         id="path1298"
         d="m 367.886,300.778 h 65.195 V 235.58 h -65.195 z" />
    </clipPath>
    <clipPath
       id="clipPath1372"
       clipPathUnits="userSpaceOnUse">
      <path
         id="path1370"
         d="M 363.392,237.141 H 403.03 V 205.229 H 363.392 Z" />
    </clipPath>
    <clipPath
       id="clipPath1616"
       clipPathUnits="userSpaceOnUse">
      <path
         id="path1614"
         d="M 57.2368,150.854 H 130.65 V 77.4414 H 57.2368 Z" />
    </clipPath>
    <clipPath
       id="clipPath664"
       clipPathUnits="userSpaceOnUse">
      <path
         id="path662"
         d="m 262.361,66.1875 h 30.868 V 44.2773 h -30.868 z" />
    </clipPath>
    <clipPath
       id="clipPath680"
       clipPathUnits="userSpaceOnUse">
      <path
         id="path678"
         d="m 206.024,83.7422 h 33.13 v -18.583 h -33.13 z" />
    </clipPath>
    <clipPath
       id="clipPath786"
       clipPathUnits="userSpaceOnUse">
      <path
         id="path784"
         d="m 61,448.16 h 64.61 v -70.1 H 61 Z" />
    </clipPath>
    <clipPath
       id="clipPath1064"
       clipPathUnits="userSpaceOnUse">
      <path
         id="path1062"
         d="m 170,444.75 h 70.24 V 377.41 H 170 Z" />
    </clipPath>
    <clipPath
       id="clipPath1120"
       clipPathUnits="userSpaceOnUse">
      <path
         id="path1118"
         d="m 289.83,436.26 h 63.56 v -58.67 h -63.56 z" />
    </clipPath>
    <clipPath
       id="clipPath1158"
       clipPathUnits="userSpaceOnUse">
      <path
         id="path1156"
         d="m 402.08,432.49 h 65.86 v -54.83 h -65.86 z" />
    </clipPath>
    <clipPath
       id="clipPath1182"
       clipPathUnits="userSpaceOnUse">
      <path
         id="path1180"
         d="M 397.86,434.26 H 430.9 V 409.1 h -33.04 z" />
    </clipPath>
    <clipPath
       id="clipPath32"
       clipPathUnits="userSpaceOnUse">
      <path
         id="path30"
         d="m 54.02,326.01 h 70.94 V 260.67 H 54.02 Z" />
    </clipPath>
    <clipPath
       id="clipPath824"
       clipPathUnits="userSpaceOnUse">
      <path
         id="path822"
         d="m 175.93,327.18 h 64.13 v -65.26 h -64.13 z" />
    </clipPath>
    <clipPath
       id="clipPath844"
       clipPathUnits="userSpaceOnUse">
      <path
         id="path842"
         d="m 183.243,324.715 h 25.326 v -33.647 h -25.326 z" />
    </clipPath>
    <clipPath
       id="clipPath908"
       clipPathUnits="userSpaceOnUse">
      <path
         id="path906"
         d="m 197.267,316.041 h 19.948 v -35.416 h -19.948 z" />
    </clipPath>
    <clipPath
       id="clipPath124"
       clipPathUnits="userSpaceOnUse">
      <path
         id="path122"
         d="m 291.95,324.64 h 62.06 v -63.89 h -62.06 z" />
    </clipPath>
    <clipPath
       id="clipPath146"
       clipPathUnits="userSpaceOnUse">
      <path
         id="path144"
         d="m 283.858,324.585 h 46.95 v -27.81 h -46.95 z" />
    </clipPath>
    <clipPath
       id="clipPath166"
       clipPathUnits="userSpaceOnUse">
      <path
         id="path164"
         d="m 286.145,322.192 h 3.077 v -3.077 h -3.077 z" />
    </clipPath>
    <clipPath
       id="clipPath182"
       clipPathUnits="userSpaceOnUse">
      <path
         id="path180"
         d="m 286.145,318.236 h 3.077 v -8.572 h -3.077 z" />
    </clipPath>
    <clipPath
       id="clipPath202"
       clipPathUnits="userSpaceOnUse">
      <path
         id="path200"
         d="m 396.97,320.9 h 70.44 v -60.11 h -70.44 z" />
    </clipPath>
    <clipPath
       id="clipPath228"
       clipPathUnits="userSpaceOnUse">
      <path
         id="path226"
         d="m 394.101,323.768 h 56.548 v -8.047 h -56.548 z" />
    </clipPath>
    <clipPath
       id="clipPath244"
       clipPathUnits="userSpaceOnUse">
      <path
         id="path242"
         d="m 419.483,308.056 h 5.784 v -2.671 h -5.784 z" />
    </clipPath>
    <clipPath
       id="clipPath260"
       clipPathUnits="userSpaceOnUse">
      <path
         id="path258"
         d="m 402.132,315.721 h 42.336 v -1.704 h -42.336 z" />
    </clipPath>
    <clipPath
       id="clipPath280"
       clipPathUnits="userSpaceOnUse">
      <path
         id="path278"
         d="m 395.92,295.074 h 2.318 v -2.318 h -2.318 z" />
    </clipPath>
    <clipPath
       id="clipPath300"
       clipPathUnits="userSpaceOnUse">
      <path
         id="path298"
         d="m 394.101,323.768 h 5.939 v -8.047 h -5.939 z" />
    </clipPath>
    <clipPath
       id="clipPath316"
       clipPathUnits="userSpaceOnUse">
      <path
         id="path314"
         d="m 444.711,323.768 h 5.938 v -8.047 h -5.938 z" />
    </clipPath>
    <clipPath
       id="clipPath332"
       clipPathUnits="userSpaceOnUse">
      <path
         id="path330"
         d="m 395.92,303.125 h 2.318 v -6.698 h -2.318 z" />
    </clipPath>
    <clipPath
       id="clipPath352"
       clipPathUnits="userSpaceOnUse">
      <path
         id="path350"
         d="M 58.7202,214.67 H 124.85 V 144.13 H 58.7202 Z" />
    </clipPath>
    <clipPath
       id="clipPath412"
       clipPathUnits="userSpaceOnUse">
      <path
         id="path410"
         d="m 178.09,206.33 h 62.17 v -61.92 h -62.17 z" />
    </clipPath>
    <clipPath
       id="clipPath492"
       clipPathUnits="userSpaceOnUse">
      <path
         id="path490"
         d="m 168.416,211.7 h 48.869 v -48.869 h -48.869 z" />
    </clipPath>
    <clipPath
       id="clipPath512"
       clipPathUnits="userSpaceOnUse">
      <path
         id="path510"
         d="m 292.86,214.17 h 60.71 v -70.04 h -60.71 z" />
    </clipPath>
    <clipPath
       id="clipPath540"
       clipPathUnits="userSpaceOnUse">
      <path
         id="path538"
         d="m 316.605,206.967 h 5.836 v -5.836 h -5.836 z" />
    </clipPath>
    <clipPath
       id="clipPath556"
       clipPathUnits="userSpaceOnUse">
      <path
         id="path554"
         d="m 319.69,200.173 h 2.688 v -2.688 h -2.688 z" />
    </clipPath>
  </defs>
  <metadata
     id="metadata4409">
    <rdfRDF>
      <ccWork
         rdfRbout="">
        <dcFormat>image/svg+xml</dcFormat>
        <dcType
           rdfResource="http://purl.org/dc/dcmitype/StillImage" />
        <dcTitle></dcTitle>
      </ccWork>
    </rdfRDF>
  </metadata>
  <g
     transform="translate(36.869797,17.815385)"
     id="layer1">
    <g
       id="g3920"
       transform="matrix(0.35277777,0,0,-0.35277777,-127.48629,67.66078)">
      <g
         id="g502"
         transform="translate(355.0303,191.79)">
        <path
           d="m 0,0 c 0,-2.771 -0.24,-5.48 -0.69,-8.12 -0.21,-1.22 -0.47,-2.43 -0.77,-3.61 -5.13,-20.3 -23.29,-35.41 -45.061,-35.91 -0.379,-0.02 -0.759,-0.02 -1.139,-0.02 h -0.07 c -26.3,0.04 -47.6,21.36 -47.6,47.66 0,26.33 21.34,47.67 47.67,47.67 C -21.34,47.67 0,26.33 0,0"
           style="fill:#e74c3c;fill-opacity:1;fill-rule:nonzero;stroke:none"
           id="path504" />
      </g>
      <g
         id="g506">
        <g
           id="g508" />
        <g
           id="g520">
          <g
             clip-path="url(#clipPath512)"
             id="g518"
             style="opacity:0.5">
            <g
               transform="translate(353.5703,180.0596)"
               id="g516">
              <path
                 d="M 0,0 C -5.13,-20.3 -23.29,-35.409 -45.061,-35.909 -45.44,-35.93 -45.82,-35.93 -46.2,-35.93 h -0.071 l -14.439,18.191 30.529,51.849 z"
                 style="fill:#c0392b;fill-opacity:1;fill-rule:nonzero;stroke:none"
                 id="path514" />
            </g>
          </g>
        </g>
      </g>
      <g
         id="g522"
         transform="translate(308.5117,184.4229)">
        <path
           d="m 0,0 -10.849,-20.613 c -0.915,-1.738 -3.063,-2.403 -4.8,-1.491 -1.738,0.914 -2.405,3.064 -1.49,4.801 L -6.291,3.31 Z"
           style="fill:#2b2b2b;fill-opacity:1;fill-rule:nonzero;stroke:none"
           id="path524" />
      </g>
      <g
         id="g526"
         transform="translate(296.4688,208.1055)">
        <path
           d="m 0,0 c -4.665,-8.862 -1.262,-19.825 7.601,-24.49 8.861,-4.663 19.825,-1.261 24.49,7.601 4.663,8.863 1.261,19.827 -7.602,24.491 C 15.627,12.266 4.663,8.862 0,0"
           style="fill:#ffffff;fill-opacity:1;fill-rule:nonzero;stroke:none"
           id="path528" />
      </g>
      <g
         id="g530"
         transform="translate(300.9277,205.7607)">
        <path
           d="m 0,0 c -3.368,-6.401 -0.912,-14.32 5.486,-17.687 6.402,-3.367 14.319,-0.91 17.687,5.489 3.368,6.4 0.91,14.319 -5.488,17.685 C 11.284,8.854 3.367,6.397 0,0"
           style="fill:#bdc3c7;fill-opacity:1;fill-rule:nonzero;stroke:none"
           id="path532" />
      </g>
      <g
         id="g534">
        <g
           id="g536" />
        <g
           id="g548">
          <g
             clip-path="url(#clipPath540)"
             id="g546"
             style="opacity:0.5">
            <g
               transform="translate(316.9424,205.4063)"
               id="g544">
              <path
                 d="m 0,0 c -0.751,-1.425 -0.203,-3.189 1.222,-3.939 1.426,-0.75 3.19,-0.203 3.941,1.222 0.75,1.425 0.202,3.191 -1.224,3.941 C 2.514,1.975 0.75,1.427 0,0"
                 style="fill:#bdc3c7;fill-opacity:1;fill-rule:nonzero;stroke:none"
                 id="path542" />
            </g>
          </g>
        </g>
      </g>
      <g
         id="g550">
        <g
           id="g552" />
        <g
           id="g564">
          <g
             clip-path="url(#clipPath556)"
             id="g562"
             style="opacity:0.5">
            <g
               transform="translate(319.8447,199.4551)"
               id="g560">
              <path
                 d="M 0,0 C -0.345,-0.656 -0.093,-1.468 0.564,-1.814 1.222,-2.16 2.033,-1.908 2.378,-1.252 2.725,-0.595 2.471,0.217 1.815,0.563 1.158,0.909 0.346,0.656 0,0"
                 style="fill:#bdc3c7;fill-opacity:1;fill-rule:nonzero;stroke:none"
                 id="path558" />
            </g>
          </g>
        </g>
      </g>
    </g>
  </g>
</svg>